<?xml version="1.0" encoding="UTF-8" standalone="no"?>
<!-- Created with Inkscape (http://www.inkscape.org/) -->

<svg
   xmlns:dc="http://purl.org/dc/elements/1.1/"
   xmlns:cc="http://creativecommons.org/ns#"
   xmlns:rdf="http://www.w3.org/1999/02/22-rdf-syntax-ns#"
   xmlns:svg="http://www.w3.org/2000/svg"
   xmlns="http://www.w3.org/2000/svg"
   xmlns:sodipodi="http://sodipodi.sourceforge.net/DTD/sodipodi-0.dtd"
   xmlns:inkscape="http://www.inkscape.org/namespaces/inkscape"
   width="34.03125"
   height="35.875"
   id="svg2"
   version="1.1"
   inkscape:version="0.48.3.1 r9886"
   inkscape:export-filename="C:\Users\Windows\Github\vector-georeferencer-plugin\vectGeoref\icon.png"
   inkscape:export-xdpi="300"
   inkscape:export-ydpi="300"
   sodipodi:docname="icon.svg">
  <defs
     id="defs4">
    <linearGradient
       id="linearGradient3846">
      <stop
         style="stop-color:#ff0815;stop-opacity:1;"
         offset="0"
         id="stop3848" />
      <stop
         style="stop-color:#a0a0a0;stop-opacity:0;"
         offset="1"
         id="stop3850" />
    </linearGradient>
  </defs>
  <sodipodi:namedview
     id="base"
     pagecolor="#ffffff"
     bordercolor="#666666"
     borderopacity="1.0"
     inkscape:pageopacity="0.0"
     inkscape:pageshadow="2"
     inkscape:zoom="14.589837"
     inkscape:cx="8.024638"
     inkscape:cy="16.772082"
     inkscape:document-units="px"
     inkscape:current-layer="g3856"
     showgrid="false"
     fit-margin-top="0"
     fit-margin-left="0"
     fit-margin-right="0"
     fit-margin-bottom="0"
     inkscape:window-width="1366"
     inkscape:window-height="746"
     inkscape:window-x="-8"
     inkscape:window-y="-8"
     inkscape:window-maximized="1"
     showguides="true"
     inkscape:guide-bbox="true" />
  <metadata
     id="metadata7">
    <rdf:RDF>
      <cc:Work
         rdf:about="">
        <dc:format>image/svg+xml</dc:format>
        <dc:type
           rdf:resource="http://purl.org/dc/dcmitype/StillImage" />
        <dc:title></dc:title>
      </cc:Work>
    </rdf:RDF>
  </metadata>
  <g
     inkscape:label="Livello 1"
     inkscape:groupmode="layer"
     id="layer1"
     transform="translate(-254.03125,-254.3125)">
    <path
       style="fill:#a0a0a0;stroke:none"
       d=""
       id="path3840"
       inkscape:connector-curvature="0"
       transform="translate(254.21431,254.64789)" />
    <g
       id="g3856"
       inkscape:export-filename="C:\Users\Windows\Github\vector-georeferencer-plugin\vectGeoref\icon.png"
       inkscape:export-xdpi="300"
       inkscape:export-ydpi="300">
      <path
         sodipodi:type="arc"
         style="fill:#000000;fill-opacity:0.71759261;fill-rule:evenodd;stroke:#000000;stroke-width:0.38629079;stroke-linecap:round;stroke-linejoin:round;stroke-miterlimit:4;stroke-opacity:1;stroke-dasharray:none;stroke-dashoffset:0"
         id="path3930"
         sodipodi:cx="9.6985321"
         sodipodi:cy="9.0191765"
         sodipodi:rx="7.9850106"
         sodipodi:ry="6.7170043"
         d="m 17.683543,9.0191765 a 7.9850106,6.7170043 0 1 1 -15.9700215,0 7.9850106,6.7170043 0 1 1 15.9700215,0 z"
         transform="matrix(1.7967309,0,0,1.8276131,251.19115,250.65676)"
         inkscape:export-filename="C:\Users\Windows\Github\vector-georeferencer-plugin\vectGeoref\icon.png"
         inkscape:export-xdpi="300"
         inkscape:export-ydpi="300" />
      <path
         style="fill:none;stroke:#000000;stroke-width:1px;stroke-linecap:butt;stroke-linejoin:miter;stroke-opacity:1"
         d="m 261.28944,256.36745 0,21.17"
         id="path3932"
         inkscape:connector-curvature="0"
         inkscape:export-filename="C:\Users\Windows\Github\vector-georeferencer-plugin\vectGeoref\icon.png"
         inkscape:export-xdpi="300"
         inkscape:export-ydpi="300" />
      <path
         style="fill:none;stroke:#000000;stroke-width:1px;stroke-linecap:butt;stroke-linejoin:miter;stroke-opacity:1"
         d="m 269.04785,254.73898 0,24.92798"
         id="path3934"
         inkscape:connector-curvature="0"
         inkscape:export-filename="C:\Users\Windows\Github\vector-georeferencer-plugin\vectGeoref\icon.png"
         inkscape:export-xdpi="300"
         inkscape:export-ydpi="300" />
      <path
         style="fill:none;stroke:#000000;stroke-width:1px;stroke-linecap:butt;stroke-linejoin:miter;stroke-opacity:1"
         d="m 276.68312,256.99379 0,20.04257"
         id="path3936"
         inkscape:connector-curvature="0"
         inkscape:export-filename="C:\Users\Windows\Github\vector-georeferencer-plugin\vectGeoref\icon.png"
         inkscape:export-xdpi="300"
         inkscape:export-ydpi="300" />
      <path
         style="fill:none;stroke:#000000;stroke-width:1px;stroke-linecap:butt;stroke-linejoin:miter;stroke-opacity:1"
         d="m 254.39304,266.514 28.3244,0"
         id="path3938"
         inkscape:connector-curvature="0"
         inkscape:export-filename="C:\Users\Windows\Github\vector-georeferencer-plugin\vectGeoref\icon.png"
         inkscape:export-xdpi="300"
         inkscape:export-ydpi="300" />
      <path
         style="fill:#a0a0a0;stroke:none"
         d="m 255.1219,265.4004 c 0,-0.3615 0.53328,-1.9237 0.93834,-2.74891 0.45918,-0.93545 0.80876,-1.45111 1.61781,-2.38656 0.55254,-0.63886 2.3391,-2.20578 2.51492,-2.20578 0.0556,0 0.10126,1.69111 0.10126,3.75799 l 0,3.75799 -2.58614,0 c -2.12988,0 -2.58615,-0.0309 -2.58615,-0.17475 z"
         id="path3940"
         inkscape:connector-curvature="0"
         inkscape:export-filename="C:\Users\Windows\Github\vector-georeferencer-plugin\vectGeoref\icon.png"
         inkscape:export-xdpi="300"
         inkscape:export-ydpi="300" />
      <path
         style="fill:#a0a0a0;stroke:none"
         d="m 266.63639,278.58684 c -1.07345,-0.13637 -3.01125,-0.63409 -3.78686,-0.97253 l -0.58494,-0.25527 0,-4.95244 0,-4.9525 2.894,0 2.89401,0 0,5.63698 0,5.63698 -0.27707,-0.0178 c -0.15249,-0.008 -0.66503,-0.0651 -1.13914,-0.12538 z"
         id="path3942"
         inkscape:connector-curvature="0"
         inkscape:export-filename="C:\Users\Windows\Github\vector-georeferencer-plugin\vectGeoref\icon.png"
         inkscape:export-xdpi="300"
         inkscape:export-ydpi="300" />
      <path
         style="fill:#999999;stroke:none"
         d="m 270.02301,260.62711 0,-4.94803 0.31929,0 c 0.70397,0 2.89277,0.54693 4.0833,1.0203 l 1.26228,0.5019 0,4.18693 0,4.18692 -2.83244,0 -2.83243,0 0,-4.94802 z"
         id="path3944"
         inkscape:connector-curvature="0"
         inkscape:export-filename="C:\Users\Windows\Github\vector-georeferencer-plugin\vectGeoref\icon.png"
         inkscape:export-xdpi="300"
         inkscape:export-ydpi="300" />
      <path
         style="fill:#a0a0a0;stroke:none"
         d="m 277.65828,271.5953 0,-4.1412 2.29606,0 2.29608,0 -0.074,0.80808 c -0.16176,1.76182 -0.97166,3.68102 -2.22513,5.27269 -0.67952,0.86287 -1.63043,1.80017 -2.13891,2.10829 -0.1218,0.074 -0.15408,-0.76867 -0.15408,-4.04786 z"
         id="path3946"
         inkscape:connector-curvature="0"
         inkscape:export-filename="C:\Users\Windows\Github\vector-georeferencer-plugin\vectGeoref\icon.png"
         inkscape:export-xdpi="300"
         inkscape:export-ydpi="300" />
      <path
         style="fill:none;stroke:#000000;stroke-width:1px;stroke-linecap:butt;stroke-linejoin:miter;stroke-opacity:1"
         d="m 256.11714,261.25284 24.62989,0"
         id="path3948"
         inkscape:connector-curvature="0"
         inkscape:export-filename="C:\Users\Windows\Github\vector-georeferencer-plugin\vectGeoref\icon.png"
         inkscape:export-xdpi="300"
         inkscape:export-ydpi="300" />
      <path
         style="fill:none;stroke:#000000;stroke-width:1px;stroke-linecap:butt;stroke-linejoin:miter;stroke-opacity:1"
         d="m 256.01092,272.65205 24.81956,0"
         id="path3950"
         inkscape:connector-curvature="0"
         inkscape:export-filename="C:\Users\Windows\Github\vector-georeferencer-plugin\vectGeoref\icon.png"
         inkscape:export-xdpi="300"
         inkscape:export-ydpi="300" />
      <path
         style="fill:#a0a0a0;stroke:none"
         d="m 259.67846,275.88264 c -0.69469,-0.54368 -1.52593,-1.31553 -1.96094,-1.82074 l -0.40445,-0.46974 1.49056,0 1.49054,0 0,1.3153 c 0,0.72339 -0.0415,1.31467 -0.0924,1.31391 -0.0508,-7.8e-4 -0.28632,-0.15319 -0.52336,-0.33873 l 0,0 z"
         id="path3952"
         inkscape:connector-curvature="0"
         inkscape:export-filename="C:\Users\Windows\Github\vector-georeferencer-plugin\vectGeoref\icon.png"
         inkscape:export-xdpi="300"
         inkscape:export-ydpi="300" />
      <path
         style="fill:#a0a0a0;stroke:none"
         d="m 262.26459,258.6184 0,-1.69556 0.54027,-0.23555 c 1.09006,-0.4753 3.99497,-1.12916 5.03225,-1.13273 0.1977,-6.9e-4 0.21549,0.19583 0.21549,2.37933 l 0,2.38006 -2.89401,0 -2.894,0 0,-1.69555 z"
         id="path3954"
         inkscape:connector-curvature="0"
         inkscape:export-filename="C:\Users\Windows\Github\vector-georeferencer-plugin\vectGeoref\icon.png"
         inkscape:export-xdpi="300"
         inkscape:export-ydpi="300" />
      <path
         style="fill:#a0a0a0;stroke:none"
         d="m 270.02301,269.58363 0,-2.12953 2.83243,0 2.83244,0 0,2.12953 0,2.12952 -2.83244,0 -2.83243,0 0,-2.12952 z"
         id="path3956"
         inkscape:connector-curvature="0"
         inkscape:export-filename="C:\Users\Windows\Github\vector-georeferencer-plugin\vectGeoref\icon.png"
         inkscape:export-xdpi="300"
         inkscape:export-ydpi="300" />
      <path
         style="fill:#a0a0a0;stroke:none"
         d="m 270.02301,276.09749 0,-2.50533 2.83243,0 2.83244,0 0,1.7442 0,1.74425 -1.26228,0.50189 c -1.19053,0.47337 -3.37933,1.02031 -4.0833,1.02031 l -0.31929,0 0,-2.50532 z"
         id="path3958"
         inkscape:connector-curvature="0"
         inkscape:export-filename="C:\Users\Windows\Github\vector-georeferencer-plugin\vectGeoref\icon.png"
         inkscape:export-xdpi="300"
         inkscape:export-ydpi="300" />
      <path
         style="fill:#000000;stroke:none"
         d="m 277.65828,263.88401 0,-1.69108 1.66931,0 1.66927,0 0.31762,0.72028 c 0.36326,0.82368 0.77484,2.11896 0.77624,2.44269 8.5e-4,0.20068 -0.1864,0.21923 -2.21574,0.21923 l -2.2167,0 0,-1.69112 z"
         id="path3960"
         inkscape:connector-curvature="0"
         inkscape:export-filename="C:\Users\Windows\Github\vector-georeferencer-plugin\vectGeoref\icon.png"
         inkscape:export-xdpi="300"
         inkscape:export-ydpi="300" />
      <path
         style="fill:#a0a0a0;stroke:none"
         d="m 265.52802,278.29674 c -0.74502,-0.15922 -1.76607,-0.43747 -2.26893,-0.61813 -0.50284,-0.18065 -0.93234,-0.32848 -0.95438,-0.32848 -0.0221,0 -0.0403,-0.84555 -0.0403,-1.87896 l 0,-1.87901 2.89402,0 2.89402,0 0,2.50533 0,2.50532 -0.58497,-0.008 c -0.32172,-0.005 -1.19455,-0.1386 -1.93961,-0.29787 l 0,0 z"
         id="path3962"
         inkscape:connector-curvature="0"
         inkscape:export-filename="C:\Users\Windows\Github\vector-georeferencer-plugin\vectGeoref\icon.png"
         inkscape:export-xdpi="300"
         inkscape:export-ydpi="300" />
      <path
         style="fill:#000000;stroke:none"
         d="m 266.20537,278.45738 c -1.28331,-0.2746 -2.68609,-0.65362 -3.29205,-0.88949 l -0.64873,-0.25254 0,-1.86158 0,-1.86161 2.894,0 2.89401,0 0,2.50533 0,2.50532 -0.64652,-0.0143 c -0.35561,-0.007 -0.89592,-0.0669 -1.20071,-0.1319 z"
         id="path3964"
         inkscape:connector-curvature="0"
         inkscape:export-filename="C:\Users\Windows\Github\vector-georeferencer-plugin\vectGeoref\icon.png"
         inkscape:export-xdpi="300"
         inkscape:export-ydpi="300" />
      <path
         style="fill:#a0a0a0;stroke:none"
         d="m 262.26459,263.88401 0,-1.69108 2.894,0 2.89401,0 0,1.69108 0,1.69112 -2.89401,0 -2.894,0 0,-1.69112 z"
         id="path3966"
         inkscape:connector-curvature="0"
         inkscape:export-filename="C:\Users\Windows\Github\vector-georeferencer-plugin\vectGeoref\icon.png"
         inkscape:export-xdpi="300"
         inkscape:export-ydpi="300" />
      <path
         style="fill:#a0a0a0;stroke:none"
         d="m 262.26459,258.63314 0,-1.68081 0.95439,-0.32312 c 1.27354,-0.43113 3.54173,-0.94759 4.16808,-0.94899 l 0.5044,-0.001 0.0802,1.59717 c 0.044,0.87841 0.0803,1.92125 0.0805,2.31742 l 4.9e-4,0.72028 -2.89401,0 -2.89401,0 0,-1.68081 z"
         id="path3968"
         inkscape:connector-curvature="0"
         inkscape:export-filename="C:\Users\Windows\Github\vector-georeferencer-plugin\vectGeoref\icon.png"
         inkscape:export-xdpi="300"
         inkscape:export-ydpi="300" />
      <path
         style="fill:#000000;stroke:none"
         d="m 255.68983,270.80516 c -0.37854,-0.9897 -0.68555,-2.30164 -0.68894,-2.94394 l -0.001,-0.40712 2.64769,0 2.64772,0 0,2.12953 0,2.12952 -2.1285,0 -2.12854,0 -0.3473,-0.90799 z"
         id="path3970"
         inkscape:connector-curvature="0"
         inkscape:export-filename="C:\Users\Windows\Github\vector-georeferencer-plugin\vectGeoref\icon.png"
         inkscape:export-xdpi="300"
         inkscape:export-ydpi="300" />
      <path
         style="fill:#a0a0a0;stroke:none"
         d="m 277.65828,263.88401 0,-1.69108 1.65295,0 1.65295,0 0.44473,1.16753 c 0.24461,0.64214 0.47642,1.36594 0.5151,1.6085 l 0.0703,0.44099 -1.51006,0.0825 c -0.83053,0.0455 -1.80615,0.0825 -2.16805,0.0825 l -0.65798,0 0,-1.6911 z"
         id="path3972"
         inkscape:connector-curvature="0"
         inkscape:export-filename="C:\Users\Windows\Github\vector-georeferencer-plugin\vectGeoref\icon.png"
         inkscape:export-xdpi="300"
         inkscape:export-ydpi="300" />
      <path
         style="fill:#a0a0a0;stroke:none"
         d="m 277.65828,259.43707 c 0,-0.48228 0.0263,-0.87687 0.0585,-0.87687 0.12377,0 1.78885,1.52128 1.78885,1.63434 0,0.0658 -0.41562,0.11949 -0.92362,0.11949 l -0.92364,0 0,-0.87687 z"
         id="path3974"
         inkscape:connector-curvature="0"
         inkscape:export-filename="C:\Users\Windows\Github\vector-georeferencer-plugin\vectGeoref\icon.png"
         inkscape:export-xdpi="300"
         inkscape:export-ydpi="300" />
      <path
         style="fill:#ffffff;stroke:none"
         d="m 266.46973,279.85049 c -2.02767,-0.33723 -3.45625,-0.75729 -4.95087,-1.45575 -6.06055,-2.83223 -9.10125,-9.00209 -7.24272,-14.69614 2.30214,-7.05313 11.02806,-11.03006 19.10063,-8.70532 1.16814,0.33641 3.02429,1.16494 4.0193,1.79412 5.58206,3.52969 7.61646,9.91178 4.89971,15.37083 -1.88913,3.796 -5.5927,6.45589 -10.45402,7.50808 -1.07871,0.23347 -4.39247,0.34708 -5.37203,0.18418 z m 1.70929,-3.66468 0,-2.68857 -3.05229,0 -3.05229,0 0,1.95218 0,1.95218 0.34072,0.17637 c 1.08778,0.56303 3.55635,1.13259 5.55019,1.28054 0.1975,0.0147 0.21367,-0.18761 0.21367,-2.6727 z m 4.45634,2.13442 c 0.60435,-0.15692 1.57956,-0.48688 2.16712,-0.73325 l 1.0683,-0.44796 0,-1.82089 0,-1.82089 -2.99123,0 -2.99126,0 0,2.64169 0,2.6417 0.82413,-0.0875 c 0.45327,-0.0481 1.3186,-0.21594 1.92294,-0.37283 z m -12.18846,-4.78192 c -0.0264,-0.0265 -0.8015,-0.0329 -1.72225,-0.0142 l -1.6741,0.0342 0.71109,0.78666 c 0.39111,0.43266 1.15063,1.11311 1.68784,1.51213 l 0.97672,0.72546 0.0344,-1.49805 c 0.019,-0.82393 0.0131,-1.51973 -0.0139,-1.54622 l 0,0 z m 18.32934,1.48422 c 0.48311,-0.44769 0.99221,-0.97404 1.13138,-1.16964 l 0.253,-0.35565 -1.35131,0 -1.35134,0 0,1.28748 c 0,1.51657 -0.0515,1.50726 1.31827,0.23781 z m 2.51199,-3.32785 c 0.55866,-1.11112 0.9229,-2.33829 1.01392,-3.41591 l 0.0754,-0.8919 -2.45974,0 -2.45975,0 0,2.19975 0,2.19973 1.64824,0 1.64823,0 0,0.36662 c 0,0.20163 0.0267,0.36661 0.0595,0.36661 0.0327,0 0.24614,-0.37121 0.47427,-0.8249 z m -20.80098,-2.1133 0,-2.19451 -2.82563,0 -2.82564,0 0.0776,0.82491 c 0.0859,0.91499 0.39665,2.09404 0.797,3.02464 l 0.26287,0.61102 2.25696,-0.0356 2.25696,-0.0358 0,-2.19452 z m 7.69177,0.005 0,-2.19973 -3.05229,0 -3.05229,0 0,2.19973 0,2.19973 3.05229,0 3.05229,0 0,-2.19973 z m 7.69176,0 0,-2.19973 -2.99123,0 -2.99126,0 0,2.19973 0,2.19973 2.99126,0 2.99123,0 0,-2.19973 z m -15.38353,-5.68263 0,-1.77201 -2.18097,0 -2.18098,0 -0.33363,0.74414 c -0.35435,0.79039 -0.79854,2.22864 -0.79854,2.58567 0,0.19784 0.21031,0.21425 2.74706,0.21425 l 2.74706,0 0,-1.77201 z m 7.69177,0 0,-1.77201 -3.05229,0 -3.05229,0 0,1.77201 0,1.77199 3.05229,0 3.05229,0 0,-1.77199 z m 7.69176,0 0,-1.77201 -2.99123,0 -2.99126,0 0,1.77201 0,1.77199 2.99126,0 2.99123,0 0,-1.77199 z m 6.34876,1.47935 c 0,-0.46238 -0.47484,-1.88648 -0.95169,-2.85418 -0.44034,-0.89365 -0.63549,-1.09065 -0.63549,-0.6416 0,0.23188 -0.0814,0.24442 -1.58718,0.24442 l -1.58721,0 0,1.77201 0,1.77199 2.38079,0 2.38078,0 0,-0.29264 z m -21.73229,-6.32054 0,-1.35834 -0.33575,0.21354 c -0.9279,0.59014 -2.71653,2.17055 -2.71653,2.40028 0,0.0566 0.68675,0.10285 1.52614,0.10285 l 1.52614,0 0,-1.35832 z m 7.69177,-1.15114 0,-2.50945 -0.64097,0.073 c -2.23527,0.25427 -3.61541,0.5704 -4.82205,1.10453 l -0.64156,0.284 0,1.77874 0,1.77872 3.05229,0 3.05229,0 0,-2.50946 0,0 z m 7.69176,0.87416 0,-1.63528 -1.05493,-0.45362 c -1.20628,-0.51872 -2.98387,-0.99852 -4.13772,-1.11684 l -0.78984,-0.081 0,2.46102 0,2.46102 2.99126,0 2.99123,0 0,-1.63529 0,0 z m 3.90694,1.52862 c 0,-0.13803 -1.73402,-1.78787 -2.06603,-1.96575 -0.24817,-0.13289 -0.25372,-0.11188 -0.25372,0.96826 l 0,1.10417 1.15988,0 c 0.63792,0 1.15987,-0.048 1.15987,-0.10665 z"
         id="path3976"
         inkscape:connector-curvature="0"
         inkscape:export-filename="C:\Users\Windows\Github\vector-georeferencer-plugin\vectGeoref\icon.png"
         inkscape:export-xdpi="300"
         inkscape:export-ydpi="300" />
      <path
         style="fill:#ffffff;fill-opacity:0.71759261;fill-rule:evenodd;stroke:#000000;stroke-width:0.70000005;stroke-linecap:round;stroke-linejoin:round;stroke-miterlimit:4;stroke-opacity:1;stroke-dasharray:none;stroke-dashoffset:0"
         d="m 278.13492,279.22943 0,3.48733 -6.12693,0 0,5.65627 7.99905,0 0,-3.4448 6.16948,0 0,-5.6988 -8.0416,0 z"
         id="rect3978"
         inkscape:connector-curvature="0"
         inkscape:export-filename="C:\Users\Windows\Github\vector-georeferencer-plugin\vectGeoref\icon.png"
         inkscape:export-xdpi="300"
         inkscape:export-ydpi="300" />
      <path
         style="fill:#a0a0a0;stroke:none"
         d="m 266.47032,276.18696 c -0.67183,-1.34364 -1.2215,-2.47101 -1.2215,-2.50524 0,-0.0343 0.63183,-0.0622 1.40405,-0.0622 l 1.40405,0 0,2.50524 c 0,2.14188 -0.0264,2.50526 -0.18255,2.50526 -0.11513,0 -0.63332,-0.90151 -1.40405,-2.443 z"
         id="path3987"
         inkscape:connector-curvature="0"
         inkscape:export-filename="C:\Users\Windows\Github\vector-georeferencer-plugin\vectGeoref\icon.png"
         inkscape:export-xdpi="300"
         inkscape:export-ydpi="300" />
      <path
         style="fill:#a0a0a0;stroke:none"
         d="m 266.47032,276.18696 c -0.67183,-1.34364 -1.2215,-2.47101 -1.2215,-2.50524 0,-0.0343 0.63183,-0.0622 1.40405,-0.0622 l 1.40405,0 0,2.50524 c 0,2.14188 -0.0264,2.50526 -0.18255,2.50526 -0.11513,0 -0.63332,-0.90151 -1.40405,-2.443 z"
         id="path3989"
         inkscape:connector-curvature="0"
         inkscape:export-filename="C:\Users\Windows\Github\vector-georeferencer-plugin\vectGeoref\icon.png"
         inkscape:export-xdpi="300"
         inkscape:export-ydpi="300" />
      <path
         style="fill:#a0a0a0;stroke:none"
         d="m 266.47032,276.18696 c -0.67183,-1.34364 -1.2215,-2.47101 -1.2215,-2.50524 0,-0.0343 0.63183,-0.0622 1.40405,-0.0622 l 1.40405,0 0,2.50524 c 0,2.14188 -0.0264,2.50526 -0.18255,2.50526 -0.11513,0 -0.63332,-0.90151 -1.40405,-2.443 z"
         id="path3991"
         inkscape:connector-curvature="0"
         inkscape:export-filename="C:\Users\Windows\Github\vector-georeferencer-plugin\vectGeoref\icon.png"
         inkscape:export-xdpi="300"
         inkscape:export-ydpi="300" />
      <path
         style="fill:#a0a0a0;stroke:none"
         d="m 270.13247,276.06359 0,-2.44414 2.75043,0 2.75042,0 -0.0339,1.7296 -0.0339,1.72961 -1.09884,0.40841 c -1.31932,0.49036 -3.35863,1.02067 -3.92499,1.02067 l -0.40925,0 0,-2.44415 z"
         id="path3993"
         inkscape:connector-curvature="0"
         inkscape:export-filename="C:\Users\Windows\Github\vector-georeferencer-plugin\vectGeoref\icon.png"
         inkscape:export-xdpi="300"
         inkscape:export-ydpi="300" />
      <path
         style="fill:#a0a0a0;stroke:none"
         d="m 270.13247,276.06359 0,-2.44414 2.75043,0 2.75042,0 -0.0339,1.7296 -0.0339,1.72961 -1.09884,0.40841 c -1.31932,0.49036 -3.35863,1.02067 -3.92499,1.02067 l -0.40925,0 0,-2.44415 z"
         id="path3995"
         inkscape:connector-curvature="0"
         inkscape:export-filename="C:\Users\Windows\Github\vector-georeferencer-plugin\vectGeoref\icon.png"
         inkscape:export-xdpi="300"
         inkscape:export-ydpi="300" />
      <path
         style="fill:#a0a0a0;stroke:none"
         d="m 263.96685,271.1753 c -0.12115,-0.26884 -0.24116,-0.48882 -0.26677,-0.48882 -0.0256,0 -0.31762,0.13748 -0.6489,0.30552 -0.33129,0.16801 -0.63165,0.30551 -0.66744,0.30551 -0.0358,0 -0.0652,-0.85239 -0.0652,-1.89422 l 0,-1.89421 2.74445,0 2.74444,0 -0.14441,0.31724 c -0.12194,0.26791 -0.11212,0.33537 0.0636,0.4338 0.17996,0.10075 0.20807,0.33871 0.20807,1.76029 l 0,1.64371 -1.87387,0 -1.87387,0 -0.22024,-0.48882 z"
         id="path3997"
         inkscape:connector-curvature="0"
         inkscape:export-filename="C:\Users\Windows\Github\vector-georeferencer-plugin\vectGeoref\icon.png"
         inkscape:export-xdpi="300"
         inkscape:export-ydpi="300" />
      <path
         style="fill:#000000;stroke:none"
         d="m 262.31862,263.90396 0,-1.6498 2.80811,0 2.8081,0 0,1.6498 0,1.6498 -2.8081,0 -2.80811,0 0,-1.6498 z"
         id="path3999"
         inkscape:connector-curvature="0"
         inkscape:export-filename="C:\Users\Windows\Github\vector-georeferencer-plugin\vectGeoref\icon.png"
         inkscape:export-xdpi="300"
         inkscape:export-ydpi="300" />
      <path
         style="fill:#000000;stroke:none"
         d="m 280.8865,271.81689 c -0.007,-0.11398 -0.4141,-0.15277 -1.59716,-0.15277 l -1.58718,0 0,-2.07753 0,-2.07751 2.24707,0 2.24708,0 -0.0593,0.51937 c -0.10819,0.94805 -0.52317,2.45015 -0.88426,3.20064 -0.19598,0.4073 -0.36081,0.67182 -0.3663,0.58778 z"
         id="path4001"
         inkscape:connector-curvature="0"
         inkscape:export-filename="C:\Users\Windows\Github\vector-georeferencer-plugin\vectGeoref\icon.png"
         inkscape:export-xdpi="300"
         inkscape:export-ydpi="300" />
      <path
         style="fill:#a0a0a0;stroke:none"
         d="m 277.70216,259.5045 c 0,-0.43689 0.0317,-0.79434 0.07,-0.79434 0.0386,0 0.39926,0.31424 0.80153,0.69831 0.81903,0.78194 0.79131,0.86575 -0.2917,0.88179 l -0.57994,0.008 0,-0.79435 z"
         id="path4005"
         inkscape:connector-curvature="0"
         inkscape:export-filename="C:\Users\Windows\Github\vector-georeferencer-plugin\vectGeoref\icon.png"
         inkscape:export-xdpi="300"
         inkscape:export-ydpi="300" />
      <path
         style="fill:#a0a0a0;stroke:none"
         d="m 277.70216,259.5045 c 0,-0.43689 0.0317,-0.79434 0.07,-0.79434 0.0386,0 0.39926,0.31424 0.80153,0.69831 0.81903,0.78194 0.79131,0.86575 -0.2917,0.88179 l -0.57994,0.008 0,-0.79435 z"
         id="path4007"
         inkscape:connector-curvature="0"
         inkscape:export-filename="C:\Users\Windows\Github\vector-georeferencer-plugin\vectGeoref\icon.png"
         inkscape:export-xdpi="300"
         inkscape:export-ydpi="300" />
      <path
         style="fill:#a0a0a0;stroke:none"
         d="m 277.70216,259.5045 c 0,-0.43689 0.0317,-0.79434 0.07,-0.79434 0.0386,0 0.39926,0.31424 0.80153,0.69831 0.81903,0.78194 0.79131,0.86575 -0.2917,0.88179 l -0.57994,0.008 0,-0.79435 z"
         id="path4009"
         inkscape:connector-curvature="0"
         inkscape:export-filename="C:\Users\Windows\Github\vector-georeferencer-plugin\vectGeoref\icon.png"
         inkscape:export-xdpi="300"
         inkscape:export-ydpi="300" />
      <path
         style="fill:#a0a0a0;stroke:none"
         d="m 277.70216,259.5045 c 0,-0.43689 0.0317,-0.79434 0.07,-0.79434 0.0386,0 0.39705,0.31212 0.79661,0.69362 0.82062,0.78348 0.79365,0.89023 -0.22573,0.8932 l -0.64099,10e-4 0,-0.79435 z"
         id="path4011"
         inkscape:connector-curvature="0"
         inkscape:export-filename="C:\Users\Windows\Github\vector-georeferencer-plugin\vectGeoref\icon.png"
         inkscape:export-xdpi="300"
         inkscape:export-ydpi="300" />
      <path
         style="fill:#a0a0a0;stroke:none"
         d="m 277.70216,259.5045 c 0,-0.43689 0.0317,-0.79434 0.07,-0.79434 0.0386,0 0.39705,0.31212 0.79661,0.69362 0.82062,0.78348 0.79365,0.89023 -0.22573,0.8932 l -0.64099,10e-4 0,-0.79435 z"
         id="path4013"
         inkscape:connector-curvature="0"
         inkscape:export-filename="C:\Users\Windows\Github\vector-georeferencer-plugin\vectGeoref\icon.png"
         inkscape:export-xdpi="300"
         inkscape:export-ydpi="300" />
      <path
         style="fill:#a0a0a0;stroke:none"
         d=""
         id="path4015"
         inkscape:connector-curvature="0"
         transform="translate(254.34375,254.65625)" />
      <path
         style="fill:#a0a0a0;stroke:none"
         d=""
         id="path4017"
         inkscape:connector-curvature="0"
         transform="translate(254.34375,254.65625)" />
      <path
         style="fill:#666666;stroke:none"
         d="m 264.57731,279.37106 c -0.73865,-0.19122 -1.63133,-0.46285 -1.98376,-0.60363 -3.5033,-1.39943 -6.16126,-3.77258 -7.61357,-6.79778 -1.33551,-2.78188 -1.52002,-5.54956 -0.55804,-8.3712 1.43333,-4.20429 5.15335,-7.38386 10.15743,-8.68174 1.93943,-0.50303 4.70266,-0.63073 6.66411,-0.30799 6.07429,0.99948 10.70491,4.95915 11.91156,10.18566 0.28517,1.23513 0.2876,3.55634 0.005,4.69902 -0.34424,1.3916 -0.90988,2.69238 -1.6788,3.86067 l -0.73542,1.11738 -0.41508,-0.27234 c -0.38497,-0.25261 -0.40101,-0.28796 -0.22093,-0.48713 0.1823,-0.20161 0.16278,-0.21474 -0.31948,-0.21474 -0.44116,0 -0.75397,-0.15702 -2.21657,-1.11263 l -1.70293,-1.1126 0,-1.94257 0,-1.94257 -2.9583,0 -2.95833,0 -0.71239,-0.44011 c -0.39184,-0.24208 -0.72662,-0.42081 -0.744,-0.39719 -0.0174,0.0237 -0.15488,0.22169 -0.30558,0.44013 l -0.27401,0.39717 -2.92188,0 -2.92189,0 0,2.14168 0,2.14168 0.42733,0.84935 c 0.23502,0.46715 0.42732,0.87822 0.42732,0.9135 0,0.0352 -0.1923,0.0642 -0.42732,0.0642 l -0.42733,0 0,2.00137 0,2.00136 0.63281,0.2725 c 0.34805,0.14984 1.12658,0.39742 1.73008,0.5501 1.09468,0.27698 1.09798,0.27899 1.38406,0.84244 0.15772,0.31065 0.24451,0.5623 0.19284,0.55925 -0.0517,-0.003 -0.69826,-0.16202 -1.43691,-0.35323 z m -4.13044,-5.83278 c -0.0263,-0.0263 -0.82923,-0.0326 -1.78417,-0.0139 l -1.73624,0.0341 0.77314,0.8033 c 0.42523,0.44184 1.21267,1.15119 1.74988,1.57634 l 0.97672,0.77304 0.0343,-1.56237 c 0.019,-0.85931 0.0131,-1.58398 -0.0139,-1.61035 l 0,0 z m 21.02129,-2.09611 c 0.42685,-0.92692 0.79923,-2.28559 0.9189,-3.3526 l 0.0788,-0.7027 -2.50395,0 -2.50395,0 0,2.19975 0,2.19973 1.64825,0 1.64823,0 0,0.38156 c 0,0.54768 0.23943,0.30422 0.71371,-0.72574 l 0,0 z m -21.54735,0.38867 0.56644,-0.0777 0,-2.18313 0,-2.18312 -2.87885,0 -2.87885,0 0.0629,0.33608 c 0.0347,0.18483 0.098,0.61104 0.14103,0.9471 0.043,0.33607 0.27294,1.20221 0.51103,1.92476 l 0.43293,1.31373 1.73846,0 c 0.95614,0 1.99336,-0.035 2.30492,-0.0777 z m 0.56644,-7.92688 0,-1.77199 -2.23222,0 -2.2322,0 -0.46286,1.1888 c -0.25456,0.65385 -0.49389,1.45125 -0.53184,1.772 l -0.0691,0.5832 2.76404,0 2.76408,0 0,-1.77201 z m 7.69177,0 0,-1.77199 -3.05229,0 -3.05229,0 0,1.77199 0,1.77201 3.05229,0 3.05229,0 0,-1.77201 z m 7.69176,0 0,-1.77199 -2.99123,0 -2.99126,0 0,1.77199 0,1.77201 2.99126,0 2.99123,0 0,-1.77201 z m 6.34876,1.35157 c 0,-0.48264 -0.47818,-1.88279 -0.99374,-2.90971 -0.35672,-0.71055 -0.51369,-0.84258 -0.63267,-0.53218 -0.0484,0.12643 -0.46221,0.19341 -1.60026,0.25911 l -1.5349,0.0887 0,1.75729 0,1.75731 2.38079,0 2.38078,0 0,-0.42044 z m -21.73229,-6.24953 0,-1.41503 -0.6889,0.48917 c -0.99409,0.70588 -2.36338,1.96045 -2.36338,2.16537 0,0.14323 0.28092,0.17554 1.52614,0.17554 l 1.52614,0 0,-1.41505 z m 7.69177,-1.13208 0,-2.54715 -1.25143,0.16723 c -1.51636,0.20262 -3.35647,0.64647 -4.21788,1.0174 l -0.63527,0.27355 0,1.81805 0,1.81805 3.05229,0 3.05229,0 0,-2.54713 z m 7.69176,0.86238 0,-1.68475 -1.14883,-0.45358 c -1.15077,-0.45431 -3.16571,-0.98142 -4.25371,-1.11273 l -0.57995,-0.07 0,2.50291 0,2.5029 2.99126,0 2.99123,0 0,-1.68475 z m 3.90694,1.58974 c 0,-0.28655 -1.90115,-2.10472 -2.20079,-2.10472 -0.0684,0 -0.11892,0.46743 -0.11892,1.09987 l 0,1.09986 1.15987,0 c 0.63793,0 1.15986,-0.0428 1.15986,-0.095 z"
         id="path4021"
         inkscape:connector-curvature="0"
         inkscape:export-filename="C:\Users\Windows\Github\vector-georeferencer-plugin\vectGeoref\icon.png"
         inkscape:export-xdpi="300"
         inkscape:export-ydpi="300" />
      <path
         style="fill:#666666;stroke:none"
         d="m 268.05692,279.36318 c -0.20873,-0.40954 -0.21904,-0.48883 -0.0634,-0.48883 0.16046,0 0.18562,-0.36422 0.18562,-2.68854 l 0,-2.68857 -1.52461,0 -1.52462,0 -0.43038,-0.85545 -0.43039,-0.85544 1.95144,0 1.95147,0 0.0341,-1.59318 0.0342,-1.59316 0.82412,0.52355 0.82412,0.52356 0,1.06961 0,1.06962 1.60797,0 1.60797,0 1.29171,0.82489 1.29169,0.82491 -2.89966,0.0328 -2.89968,0.0328 0,2.67471 0,2.67473 0.51888,-0.0612 c 1.12107,-0.13205 3.14047,-0.64756 4.27017,-1.08996 l 1.18734,-0.46497 0.0335,-1.80528 0.0336,-1.80529 0.76307,0.50214 0.76307,0.50212 0,0.64913 c 0,0.35701 0.0517,0.68106 0.11473,0.72013 0.0631,0.039 0.307,-0.0979 0.5419,-0.30436 l 0.42712,-0.37538 0.41795,0.27424 0.41797,0.27424 -0.50202,0.42329 c -2.53488,2.13734 -6.46733,3.55614 -9.87006,3.56101 -0.69355,0.001 -0.70168,-0.003 -0.94868,-0.48783 z"
         id="path4023"
         inkscape:connector-curvature="0"
         inkscape:export-filename="C:\Users\Windows\Github\vector-georeferencer-plugin\vectGeoref\icon.png"
         inkscape:export-xdpi="300"
         inkscape:export-ydpi="300" />
      <path
         style="fill:#000000;stroke:none"
         d="m 16.002794,3.7361811 0,-2.3713895 0.428381,0.047129 c 1.098356,0.1208364 2.921601,0.6116889 4.386615,1.1809608 l 0.805355,0.312943 0,1.6008734 0,1.6008733 -2.810175,0 -2.810176,0 0,-2.3713896 z"
         id="path4025"
         inkscape:connector-curvature="0"
         transform="translate(254.03125,254.3125)" />
      <path
         style="fill:#a0a0a0;stroke:none"
         d="m 18.401725,15.744203 -2.36466,-1.598072 -0.02014,-0.489426 -0.02014,-0.489425 2.813178,0 2.813178,0 0,2.090496 0,2.090496 -0.42838,-0.003 -0.428381,-0.003 -2.364659,-1.598071 z"
         id="path4027"
         inkscape:connector-curvature="0"
         transform="translate(254.03125,254.3125)" />
      <path
         style="fill:#a0a0a0;stroke:none"
         d="m 18.401725,15.746045 -2.36466,-1.59641 -0.02014,-0.491178 -0.02014,-0.491177 2.813178,0 2.813178,0 0,2.090496 0,2.090496 -0.42838,-0.0029 -0.428381,-0.0029 -2.364659,-1.59641 z"
         id="path4029"
         inkscape:connector-curvature="0"
         transform="translate(254.03125,254.3125)" />
      <path
         style="fill:#000000;stroke:none"
         d="m 18.401725,15.750619 -2.36466,-1.590945 -0.02014,-0.496197 -0.02014,-0.496197 2.813178,0 2.813178,0 0,2.090496 0,2.090496 -0.42838,-0.0034 -0.428381,-0.0034 -2.364659,-1.590946 z"
         id="path4031"
         inkscape:connector-curvature="0"
         transform="translate(254.03125,254.3125)" />
      <path
         style="fill:#a0a0a0;stroke:none"
         d="m 3.769671,6.0380139 c -0.075001,-0.025226 0.075935,-0.2130347 0.5294319,-0.6587643 0.6577144,-0.64645 1.6802686,-1.5335273 1.7677318,-1.5335273 0.099143,0 0.1327602,0.3248889 0.1336804,1.2919377 l 9.36e-4,0.9835039 -1.1634349,-0.023932 C 4.398127,6.0840696 3.8273717,6.0574214 3.769671,6.0380139 z"
         id="path4033"
         inkscape:connector-curvature="0"
         transform="translate(254.03125,254.3125)" />
      <path
         style="fill:#000000;stroke:none"
         d="m 3.7680117,6.0380139 c -0.072963,-0.024935 0.082827,-0.2181774 0.5310912,-0.6587643 0.6577144,-0.64645 1.6802686,-1.5335273 1.7677318,-1.5335273 0.099161,0 0.1327603,0.3249575 0.1336804,1.2929041 l 9.36e-4,0.9844702 -1.1650942,-0.024898 C 4.3955551,6.0845045 3.8247998,6.0574214 3.7680117,6.0380139 z"
         id="path4035"
         inkscape:connector-curvature="0"
         transform="translate(254.03125,254.3125)" />
      <path
         style="fill:#000000;stroke:#000000;stroke-width:0.99999988px;stroke-linecap:butt;stroke-linejoin:miter;stroke-opacity:1"
         d="m 270.91591,287.40547 -9.27614,-18.49331"
         id="path3983"
         inkscape:connector-curvature="0"
         inkscape:export-filename="C:\Users\Windows\Github\vector-georeferencer-plugin\vectGeoref\icon.png"
         inkscape:export-xdpi="300"
         inkscape:export-ydpi="300" />
      <path
         style="fill:none;stroke:#000000;stroke-width:1px;stroke-linecap:butt;stroke-linejoin:miter;stroke-opacity:1"
         d="m 285.7482,278.38227 -18.71802,-11.30157 0,0"
         id="path3985"
         inkscape:connector-curvature="0"
         inkscape:export-filename="C:\Users\Windows\Github\vector-georeferencer-plugin\vectGeoref\icon.png"
         inkscape:export-xdpi="300"
         inkscape:export-ydpi="300" />
    </g>
  </g>
</svg>
